<?xml version="1.0" standalone="no"?>
<!DOCTYPE svg PUBLIC "-//W3C//DTD SVG 20010904//EN"
 "http://www.w3.org/TR/2001/REC-SVG-20010904/DTD/svg10.dtd">
<svg version="1.0" xmlns="http://www.w3.org/2000/svg"
 width="1556.000000pt" height="1556.000000pt" viewBox="0 0 1556.000000 1556.000000"
 preserveAspectRatio="xMidYMid meet">
<metadata>
Created by potrace 1.11, written by Peter Selinger 2001-2013
</metadata>
<g transform="translate(0.000000,1556.000000) scale(0.100000,-0.100000)"
fill="#000000" stroke="none">
<path d="M8004 14585 c-69 -27 -136 -61 -175 -90 -70 -52 -139 -90 -139 -78
-1 5 -11 -12 -23 -37 -18 -36 -36 -52 -97 -87 -41 -24 -85 -56 -97 -71 -18
-22 -32 -27 -71 -28 -61 -2 -79 -12 -148 -77 -92 -86 -132 -110 -179 -103 -38
5 -44 2 -93 -46 -29 -28 -52 -53 -52 -57 0 -13 -69 -43 -106 -46 -22 -1 -43
-9 -51 -21 -11 -16 -18 -17 -54 -7 -37 10 -41 9 -55 -13 -9 -13 -24 -26 -34
-29 -10 -3 -25 -19 -32 -35 -18 -41 -39 -37 -65 10 -13 21 -23 41 -23 44 0 2
13 7 29 11 24 5 36 20 66 80 37 72 37 74 24 119 -7 25 -16 46 -19 46 -3 0 -20
-9 -38 -20 -18 -11 -42 -20 -55 -20 -12 0 -28 -4 -35 -9 -18 -11 -123 20 -132
39 -4 8 -12 29 -16 45 -7 21 -28 42 -73 72 l-63 41 -30 -34 c-29 -32 -29 -36
-14 -53 9 -10 16 -33 15 -57 0 -21 4 -63 10 -93 6 -29 11 -55 11 -56 0 -6 -94
-35 -110 -35 -9 0 -47 15 -84 33 -69 34 -77 36 -133 23 -36 -8 -38 -13 -22
-50 9 -20 8 -32 -5 -60 -9 -18 -16 -38 -16 -42 0 -5 19 -27 41 -50 38 -38 41
-46 35 -78 -4 -21 -14 -37 -25 -41 -31 -9 -51 -40 -57 -86 -3 -24 -7 -47 -8
-51 0 -4 15 -16 34 -26 20 -11 35 -28 36 -39 1 -10 10 -46 21 -79 11 -32 23
-80 26 -106 l7 -47 -38 -10 c-20 -5 -75 -20 -122 -33 -47 -13 -102 -22 -122
-20 -21 1 -38 -2 -38 -8 0 -13 -73 -50 -99 -50 -29 0 -52 -77 -45 -149 6 -55
4 -58 -54 -155 -33 -54 -59 -105 -58 -115 1 -9 31 -35 65 -58 98 -65 108 -78
141 -181 17 -51 41 -114 54 -140 34 -67 25 -96 -40 -130 -65 -34 -151 -127
-193 -209 -12 -24 -27 -43 -34 -44 -6 -1 -21 -2 -32 -3 -17 -1 -20 -7 -18 -45
3 -64 24 -91 65 -84 40 6 36 6 73 4 24 -1 36 -10 58 -45 32 -51 33 -68 7 -111
-11 -18 -31 -57 -44 -87 l-24 -55 34 -84 c19 -45 34 -90 34 -99 0 -19 -197
-150 -226 -150 -28 0 -62 -38 -66 -74 -3 -31 -36 -56 -89 -69 -15 -4 -29 -15
-32 -26 -3 -14 -12 -18 -36 -15 -21 2 -31 -1 -31 -9 0 -13 -92 -57 -119 -57
-7 0 -22 11 -32 24 -10 13 -33 26 -51 30 -18 3 -44 8 -57 11 -13 2 -34 13 -45
24 -34 31 -74 43 -110 31 -54 -17 -187 -14 -225 6 -37 18 -93 20 -135 4 -14
-5 -26 -8 -26 -6 0 2 -22 -2 -50 -9 -42 -11 -50 -11 -50 1 0 7 -11 16 -25 20
-13 3 -29 12 -36 20 -9 11 -21 5 -66 -33 -47 -41 -61 -47 -102 -48 -74 -2 -81
-4 -81 -23 0 -18 -55 -82 -70 -82 -4 0 -10 -9 -13 -20 -3 -11 -12 -20 -21 -20
-9 0 -16 -3 -16 -7 0 -5 -7 -16 -14 -26 -15 -19 -76 -35 -76 -19 0 4 -13 23
-29 41 -16 17 -32 46 -35 64 -7 30 -8 31 -21 13 -8 -10 -16 -23 -18 -29 -1 -5
-16 -11 -32 -12 -17 -2 -33 -3 -37 -4 -5 -1 -8 -12 -8 -25 0 -21 -4 -24 -27
-22 -16 1 -43 -3 -62 -11 -51 -20 -80 -23 -109 -12 -15 6 -55 13 -89 16 -61 5
-62 4 -78 -26 -14 -29 -20 -31 -68 -32 -129 -1 -161 -10 -178 -51 -7 -17 -30
-51 -51 -75 -21 -24 -42 -53 -48 -63 -5 -10 -19 -22 -30 -25 -17 -5 -20 -15
-20 -58 0 -82 -46 -136 -117 -137 -22 0 -33 -5 -33 -14 0 -8 -9 -17 -19 -21
-27 -8 -114 -110 -138 -162 l-21 -42 23 -21 c30 -29 28 -50 -6 -50 -15 0 -39
4 -53 10 -33 12 -43 -3 -22 -35 19 -29 21 -67 4 -64 -35 4 -48 -5 -67 -44 -24
-49 -26 -81 -9 -147 6 -25 10 -85 9 -135 -1 -83 0 -88 14 -69 21 31 92 70 197
109 61 23 103 46 127 69 39 38 96 66 135 66 13 0 48 -17 77 -37 52 -35 57 -37
151 -39 63 -2 105 -8 120 -17 41 -26 163 -50 210 -41 24 4 77 9 118 9 41 1 94
5 117 9 38 8 44 6 66 -19 19 -23 34 -29 78 -33 30 -2 71 1 92 6 33 9 38 8 48
-10 13 -23 5 -48 -15 -48 -19 0 -26 -22 -26 -86 0 -46 5 -61 36 -104 20 -27
42 -50 50 -50 30 0 67 35 89 87 18 40 29 53 45 53 58 0 82 -48 81 -160 0 -67
0 -70 29 -85 29 -15 36 -11 31 17 -12 83 -11 106 9 150 28 63 48 73 143 69 57
-2 84 1 101 13 17 11 38 14 70 10 30 -4 52 -2 61 6 15 13 78 10 152 -6 l32 -6
-12 37 c-10 33 -9 39 7 51 22 16 52 4 60 -24 10 -29 49 -61 83 -68 27 -5 33
-2 54 33 13 21 24 42 24 48 0 5 8 11 17 13 11 2 24 -10 38 -38 18 -35 23 -40
37 -29 10 9 13 23 10 46 -8 46 23 65 104 67 49 0 63 -3 71 -17 16 -29 51 -38
68 -17 8 10 40 27 72 38 l56 21 15 -23 c8 -12 17 -33 19 -47 2 -15 13 -29 30
-36 45 -20 137 -93 145 -116 9 -29 6 -41 -21 -81 -16 -24 -23 -51 -25 -90 l-2
-57 62 -28 c60 -27 63 -30 85 -92 31 -84 30 -95 -9 -114 -36 -17 -70 -69 -82
-124 -6 -30 -3 -37 26 -62 19 -16 37 -29 40 -29 4 0 5 -13 4 -29 -1 -15 4 -46
11 -67 8 -22 14 -50 14 -62 0 -13 13 -36 28 -50 30 -28 72 -126 72 -167 0 -23
2 -24 46 -18 26 3 62 16 82 29 40 28 50 29 76 9 25 -19 60 -19 76 0 19 22 25
19 44 -23 15 -33 21 -38 46 -34 19 3 35 -3 50 -18 19 -19 22 -31 18 -84 -2
-40 -10 -71 -23 -88 -18 -25 -50 -44 -66 -40 -4 0 -10 -17 -13 -40 -4 -22 -13
-50 -21 -61 -20 -29 -9 -137 17 -155 29 -21 22 -42 -12 -42 -29 0 -30 -2 -19
-22 7 -13 23 -36 36 -52 l25 -29 -31 -25 c-36 -27 -61 -70 -61 -104 0 -13 10
-44 22 -69 20 -41 28 -48 63 -53 45 -8 65 -21 65 -45 0 -11 15 -21 43 -29 61
-18 63 -21 70 -88 6 -54 4 -61 -11 -61 -51 0 -58 -17 -14 -34 28 -12 75 -32
80 -35 2 -1 -4 -16 -12 -33 -17 -32 -21 -70 -8 -72 4 0 14 -2 23 -4 8 -1 49 3
89 10 65 11 76 11 86 -3 16 -22 86 -10 144 26 48 30 49 30 66 11 16 -17 19
-18 26 -4 11 18 39 20 56 3 8 -8 14 -5 21 15 6 15 17 27 26 27 9 0 15 9 15 21
0 19 -4 21 -39 15 -24 -4 -42 -2 -46 4 -10 17 21 56 55 71 20 10 28 19 24 29
-11 29 -9 34 19 48 35 17 58 2 51 -33 -3 -20 -1 -23 13 -18 10 3 26 13 35 21
20 17 48 9 48 -14 0 -11 5 -14 16 -10 9 3 19 6 24 6 4 0 10 10 13 21 l6 22 43
-25 43 -25 50 21 c109 47 134 62 139 82 4 15 21 25 66 37 33 9 72 17 87 17 30
0 155 48 198 76 17 11 43 17 76 15 37 -1 49 2 49 13 0 16 34 31 49 22 15 -10
62 13 83 39 17 21 28 25 81 25 156 2 173 4 208 31 51 39 89 56 142 63 26 4 72
19 102 33 49 22 72 25 193 28 164 5 190 9 235 35 36 21 93 27 157 16 85 -15
89 -17 85 -37 -3 -13 2 -19 15 -19 10 0 25 -3 33 -6 9 -3 16 3 20 15 3 13 23
28 49 40 23 10 60 30 81 44 21 14 52 29 70 33 17 3 65 22 107 41 134 62 333
144 352 146 35 3 18 27 -27 39 -27 7 -45 18 -45 27 0 20 58 108 75 115 11 4
13 11 5 31 -11 28 -1 64 24 84 9 8 15 27 14 47 -1 19 6 42 16 52 9 11 16 32
15 48 -3 51 0 60 41 104 22 24 40 47 40 52 0 4 -9 17 -20 28 -28 28 -25 39 18
57 44 18 57 21 97 22 30 1 42 20 62 98 3 12 14 23 25 25 13 2 25 16 33 41 7
21 21 47 30 57 16 18 16 20 1 26 -20 8 -20 21 -2 56 8 15 17 49 20 75 4 38 2
49 -13 60 -10 7 -21 26 -23 42 -4 24 2 36 29 61 18 17 37 46 41 63 l8 32 93 1
c55 1 96 6 100 13 4 6 6 25 6 43 l-1 33 -84 1 c-295 3 -520 40 -795 129 -119
39 -335 138 -408 188 -16 11 -30 17 -32 15 -2 -2 -7 -190 -10 -418 -12 -815
-12 -828 -36 -866 -65 -106 -238 -171 -457 -172 -251 -1 -461 76 -590 217 -36
38 -102 164 -102 192 0 42 -9 47 -69 42 -63 -6 -105 11 -116 47 -4 12 -25 24
-60 35 -76 22 -89 45 -88 149 6 353 1 625 -13 746 -2 25 -7 65 -9 90 -28 260
-131 525 -265 681 -47 54 -48 56 -28 70 37 26 127 142 163 210 20 38 44 102
55 143 25 97 36 216 21 216 -6 0 -13 -10 -15 -22 -3 -13 -10 -48 -17 -78 -50
-230 -249 -387 -554 -437 -52 -8 -177 -54 -250 -91 -201 -103 -353 -286 -429
-518 -9 -28 -18 -59 -20 -70 -2 -10 -9 -37 -14 -59 -13 -48 -20 -89 -30 -170
-9 -81 -9 -451 1 -545 9 -77 10 -88 22 -177 l8 -53 -166 0 -166 0 -20 68 c-56
191 -105 446 -126 657 -4 39 -9 78 -11 89 -24 134 -24 817 0 1011 2 17 7 62
10 100 4 39 9 77 11 85 2 8 6 38 10 65 5 43 37 230 49 290 13 60 78 301 100
367 200 607 545 1015 976 1158 167 55 261 69 460 70 116 0 142 -2 225 -15 l30
-5 0 -85 0 -84 35 32 c19 18 37 35 40 38 28 31 216 179 296 232 336 223 616
270 853 141 35 -19 69 -40 76 -47 131 -120 208 -230 271 -385 39 -97 75 -217
89 -297 2 -16 7 -41 10 -55 18 -91 28 -219 27 -361 -3 -659 -287 -1096 -661
-1014 -29 6 -31 5 -31 -19 0 -27 18 -39 78 -51 169 -35 304 4 438 128 189 175
320 492 361 872 10 87 10 339 1 421 -4 33 -16 107 -28 163 -11 57 -20 105 -18
106 2 1 32 14 68 27 36 14 74 29 85 33 11 4 25 9 30 11 6 1 30 9 55 17 51 17
187 52 240 61 19 3 44 8 56 10 12 2 45 7 74 11 29 4 62 9 74 12 35 9 468 12
521 3 28 -4 74 -11 104 -14 212 -23 570 -136 747 -237 l51 -29 11 25 c10 21
19 25 52 25 26 0 40 4 40 13 0 7 9 23 21 35 11 12 26 37 34 55 15 37 27 38 36
5 5 -20 8 -17 18 21 9 30 28 58 62 91 27 26 49 53 49 61 0 8 9 25 19 38 10 13
16 33 13 44 -3 10 1 23 8 27 22 14 -28 66 -89 94 -36 16 -62 36 -74 55 -15 26
-22 29 -53 26 -30 -2 -37 1 -44 21 -5 13 -14 24 -20 24 -6 0 -15 11 -20 25 -8
22 -13 24 -29 15 -11 -5 -36 -10 -56 -10 -39 0 -105 26 -105 41 0 14 -43 10
-64 -6 -29 -22 -39 -19 -87 26 -24 23 -51 47 -60 55 -18 16 -43 19 -34 4 3 -5
3 -10 -2 -11 -4 0 -20 -3 -35 -5 -20 -3 -28 0 -28 10 0 24 -18 28 -45 10 -24
-16 -27 -16 -46 2 -28 25 -50 26 -56 3 -3 -10 -17 -22 -32 -26 -14 -3 -42 -14
-63 -24 -20 -10 -49 -19 -65 -20 -24 0 -165 11 -170 15 -1 0 -4 30 -7 66 -10
120 -30 171 -80 203 -13 9 -63 53 -112 98 -133 124 -216 189 -238 189 -11 0
-30 -10 -43 -22 -16 -15 -39 -23 -71 -25 -26 -2 -68 -6 -93 -9 -44 -6 -46 -5
-59 25 -7 18 -20 32 -31 32 -11 1 -25 2 -31 3 -7 1 -24 -1 -38 -5 -14 -3 -41
0 -60 7 -19 7 -54 18 -77 24 -26 6 -43 17 -43 25 0 19 -118 95 -147 95 -13 0
-42 12 -66 27 -46 30 -190 133 -222 159 -28 22 -55 31 -106 38 -24 3 -60 10
-79 15 -54 17 -89 13 -167 -18 -48 -19 -84 -41 -110 -70 -45 -46 -69 -52 -82
-18 -7 19 -22 27 -70 37 -33 7 -64 12 -68 11 -4 -2 -10 6 -13 15 -4 10 -18 19
-31 20 -51 3 -90 16 -99 35 -30 56 -15 146 42 248 21 36 14 51 -24 51 -23 0
-19 -1 -80 17 -29 8 -80 16 -113 18 -33 1 -78 7 -100 14 -66 18 -114 11 -231
-34z"/>
<path d="M4117 7174 c-1 -1 -29 -5 -62 -9 -94 -10 -239 -63 -319 -115 -141
-93 -226 -222 -261 -400 -11 -52 -13 -450 -14 -1942 l-1 -1877 38 5 c88 10
120 16 177 31 305 77 482 293 531 646 3 23 7 301 9 617 2 316 5 591 8 610 3
19 9 62 12 95 41 390 302 645 660 646 240 1 401 -84 503 -262 33 -58 86 -208
96 -274 4 -21 8 -47 11 -59 20 -95 23 -200 25 -771 3 -531 8 -609 60 -813 6
-24 23 -72 39 -107 108 -238 289 -350 576 -358 37 -1 69 1 71 5 5 8 4 2007 -1
2068 -16 186 -42 320 -90 467 -102 309 -294 546 -557 687 -116 63 -295 120
-411 132 -29 3 -63 7 -77 10 -33 5 -263 5 -320 -1 -92 -10 -242 -47 -327 -81
-88 -35 -219 -110 -243 -139 -35 -42 -36 -26 -36 588 l0 602 -47 0 c-26 1 -49
0 -50 -1z"/>
<path d="M13867 6184 c-1 -1 -45 -4 -97 -8 -298 -19 -570 -108 -807 -262 -90
-58 -116 -79 -216 -173 -139 -132 -244 -277 -335 -460 l-56 -114 -28 139 c-15
77 -30 157 -33 179 -4 22 -13 67 -20 100 -8 33 -17 78 -21 99 -3 21 -8 48 -10
60 -3 11 -9 41 -14 66 -5 25 -11 55 -14 66 -2 12 -7 37 -10 55 -12 75 -44 231
-49 235 -2 3 -48 5 -102 6 l-97 0 -39 -93 c-66 -155 -90 -212 -104 -244 -7
-16 -52 -122 -100 -235 -80 -190 -102 -243 -125 -295 -5 -11 -34 -81 -65 -155
-31 -74 -63 -148 -70 -165 -8 -16 -25 -57 -38 -90 -28 -68 -212 -504 -232
-550 -8 -16 -55 -129 -106 -250 -51 -121 -94 -222 -96 -224 -6 -8 -14 7 -43
76 -15 37 -128 304 -250 593 -123 289 -239 566 -260 615 -21 50 -108 257 -195
460 -86 204 -173 411 -193 462 l-37 91 -60 4 c-108 6 -155 -1 -155 -21 0 -11
-9 -63 -20 -117 -10 -55 -22 -112 -24 -129 -3 -16 -26 -129 -50 -250 l-44
-220 39 -70 c78 -143 164 -383 183 -510 3 -22 11 -69 16 -105 14 -86 20 -386
10 -475 -17 -140 -23 -172 -50 -281 -64 -247 -185 -490 -340 -679 -68 -83
-193 -210 -259 -263 -75 -61 -79 -65 -85 -112 -4 -25 -10 -62 -15 -83 -7 -27
-6 -40 3 -43 6 -2 137 -3 291 -2 l280 3 17 90 c9 50 20 108 23 130 3 22 8 47
10 55 2 8 7 31 10 50 3 19 15 80 25 135 11 55 21 111 24 125 16 93 51 281 67
365 11 55 22 115 25 134 3 18 7 41 9 50 1 9 6 36 11 61 4 25 8 47 9 50 1 3 5
25 10 50 5 25 9 47 10 50 1 3 5 30 10 60 5 30 9 57 10 60 1 3 5 25 9 50 5 25
10 54 12 65 17 80 26 125 30 158 14 94 16 93 73 -41 30 -70 64 -149 76 -177
12 -27 49 -113 83 -190 33 -77 72 -167 87 -200 48 -109 53 -119 78 -180 25
-60 263 -611 310 -717 l25 -56 200 0 c193 1 201 2 211 22 6 12 33 73 60 136
27 63 135 315 241 560 359 833 390 906 391 921 1 19 18 -26 24 -64 3 -18 8
-43 10 -57 12 -59 15 -77 20 -105 3 -16 12 -64 20 -105 8 -41 17 -88 20 -105
6 -33 41 -222 50 -270 3 -16 17 -90 31 -162 13 -73 35 -193 48 -265 14 -73 27
-145 30 -161 3 -15 7 -35 10 -45 3 -9 7 -33 10 -52 3 -19 15 -84 26 -145 19
-99 27 -141 47 -253 l6 -32 288 0 c256 0 289 2 289 16 0 8 -13 83 -30 166 -33
167 -35 180 -17 158 20 -25 108 -94 190 -149 198 -132 451 -224 712 -258 73
-9 419 -10 495 -1 139 17 241 39 360 78 540 177 908 619 1004 1205 25 150 27
183 31 391 4 184 2 202 -13 206 -14 2 -1430 2 -1467 -1 -7 -1 -10 -98 -10
-273 l0 -273 427 -1 c235 0 430 -3 434 -6 3 -4 -6 -48 -20 -99 -98 -341 -371
-591 -726 -664 -108 -23 -324 -26 -439 -8 -155 25 -299 81 -424 167 -258 177
-422 458 -463 796 -8 70 -9 268 -1 345 34 326 167 594 386 782 190 163 390
234 671 239 211 4 360 -25 505 -95 33 -17 61 -28 63 -26 7 7 5 593 -2 603 -7
12 -144 42 -266 58 -64 9 -337 23 -343 18z"/>
<path d="M1550 6149 c-304 -27 -555 -124 -791 -305 l-56 -42 0 129 c0 71 -3
132 -5 135 -6 5 -125 -21 -188 -42 -227 -77 -386 -249 -458 -500 -47 -162 -46
-85 -47 -2397 -1 -1204 2 -2190 6 -2192 10 -7 187 82 261 131 168 112 303 292
367 489 42 131 47 187 50 555 3 384 9 998 10 1017 1 6 49 -22 107 -63 58 -40
150 -96 203 -122 105 -53 289 -115 391 -132 36 -6 76 -13 90 -16 14 -3 93 -7
175 -8 489 -12 861 133 1192 462 149 149 271 326 353 513 39 88 86 225 95 281
3 17 8 35 11 39 2 4 7 27 10 51 3 24 7 49 10 57 16 49 23 326 11 461 -35 394
-189 732 -460 1009 -276 282 -603 439 -1012 486 -79 9 -243 11 -325 4z m275
-674 c255 -52 457 -179 614 -389 104 -137 164 -288 191 -476 8 -60 6 -290 -4
-330 -3 -14 -8 -35 -10 -48 -32 -167 -127 -337 -265 -472 -91 -90 -113 -108
-182 -152 -166 -105 -333 -149 -543 -142 -61 1 -120 5 -132 8 -105 23 -171 45
-239 77 -224 108 -421 326 -506 560 -52 142 -63 210 -62 379 0 134 4 169 26
253 43 162 122 299 246 430 159 167 327 263 527 301 68 13 278 14 339 1z"/>
<path d="M8037 6154 c-1 -1 -36 -4 -78 -7 -264 -21 -565 -142 -776 -314 l-43
-34 0 135 0 136 -42 -6 c-140 -21 -286 -88 -401 -184 -27 -22 -117 -136 -117
-148 0 -6 -4 -12 -8 -14 -20 -8 -82 -168 -101 -259 -6 -30 -14 -65 -18 -79 -4
-14 -9 -908 -10 -1987 l-3 -1962 32 11 c18 6 67 29 108 51 238 124 398 298
479 519 66 180 76 273 76 731 -1 218 1 397 4 397 2 0 22 -15 45 -34 174 -142
452 -266 676 -301 154 -24 369 -28 520 -10 86 10 257 51 340 80 450 163 823
555 984 1035 19 58 38 120 41 139 3 19 7 37 9 40 5 8 22 121 31 206 7 58 7
280 0 350 -40 439 -236 826 -560 1109 -231 201 -553 348 -834 381 -120 14
-345 27 -354 19z m243 -683 c389 -78 704 -401 775 -796 30 -163 25 -336 -14
-485 -92 -360 -436 -669 -797 -716 -87 -12 -270 -9 -339 5 -234 48 -448 193
-599 404 -61 85 -136 243 -151 317 -20 95 -25 122 -30 160 -6 48 -7 218 -1
261 16 111 62 255 103 321 13 21 23 41 23 44 0 17 121 165 185 227 157 153
330 239 545 270 46 7 244 -1 300 -12z"/>
</g>
</svg>
